<?xml version="1.0" encoding="UTF-8"?>
<!DOCTYPE svg PUBLIC "-//W3C//DTD SVG 1.1//EN" "http://www.w3.org/Graphics/SVG/1.1/DTD/svg11.dtd">
<svg xmlns="http://www.w3.org/2000/svg" version="1.1" width="54px" height="52px" style="shape-rendering:geometricPrecision; text-rendering:geometricPrecision; image-rendering:optimizeQuality; fill-rule:evenodd; clip-rule:evenodd" xmlns:xlink="http://www.w3.org/1999/xlink">
<g><path style="opacity:1" fill="#f9faf9" d="M -0.5,-0.5 C 17.5,-0.5 35.5,-0.5 53.5,-0.5C 53.5,16.8333 53.5,34.1667 53.5,51.5C 46.5,51.5 39.5,51.5 32.5,51.5C 34.396,50.5195 36.396,49.5195 38.5,48.5C 39.2975,48.0431 39.6309,47.3764 39.5,46.5C 33.7925,49.5877 27.7925,51.2544 21.5,51.5C 14.1667,51.5 6.83333,51.5 -0.5,51.5C -0.5,34.1667 -0.5,16.8333 -0.5,-0.5 Z"/></g>
<g><path style="opacity:1" fill="#faeea1" d="M 42.5,10.5 C 41.713,12.1042 40.3797,12.7709 38.5,12.5C 39.0065,11.1411 40.0065,10.1411 41.5,9.5C 40.9953,8.08149 39.9953,7.41483 38.5,7.5C 29.765,1.0258 20.765,0.859129 11.5,7C 9.62658,8.70383 7.95991,10.5372 6.5,12.5C 4.89984,14.7026 3.56651,17.036 2.5,19.5C 3.58546,9.85469 8.9188,4.02136 18.5,2C 26.97,0.416019 34.8033,1.91602 42,6.5C 42.49,7.79323 42.6567,9.12656 42.5,10.5 Z"/></g>
<g><path style="opacity:1" fill="#f3992d" d="M 38.5,7.5 C 36.2655,7.61986 34.0989,7.28652 32,6.5C 31.0546,6.90536 30.3879,7.57203 30,8.5C 27.206,7.15372 24.706,7.65372 22.5,10C 16.9605,10.1488 11.6272,10.9821 6.5,12.5C 7.95991,10.5372 9.62658,8.70383 11.5,7C 20.765,0.859129 29.765,1.0258 38.5,7.5 Z"/></g>
<g><path style="opacity:1" fill="#eb8e3a" d="M 38.5,7.5 C 39.9953,7.41483 40.9953,8.08149 41.5,9.5C 40.0065,10.1411 39.0065,11.1411 38.5,12.5C 34.7674,14.7508 30.7674,15.0841 26.5,13.5C 21.6842,12.3503 16.6842,12.1837 11.5,13C 10.1175,14.4609 10.4508,15.2942 12.5,15.5C 15.0051,17.0114 17.6717,18.3447 20.5,19.5C 21.8062,20.4674 22.4729,21.8007 22.5,23.5C 17.1667,23.5 11.8333,23.5 6.5,23.5C 5.16667,23.5 3.83333,23.5 2.5,23.5C 2.5,22.1667 2.5,20.8333 2.5,19.5C 3.56651,17.036 4.89984,14.7026 6.5,12.5C 11.6272,10.9821 16.9605,10.1488 22.5,10C 24.706,7.65372 27.206,7.15372 30,8.5C 30.3879,7.57203 31.0546,6.90536 32,6.5C 34.0989,7.28652 36.2655,7.61986 38.5,7.5 Z"/></g>
<g><path style="opacity:1" fill="#c39e83" d="M 26.5,13.5 C 22.1539,13.3343 17.8206,13.501 13.5,14C 14.056,14.3826 14.3893,14.8826 14.5,15.5C 13.8333,15.5 13.1667,15.5 12.5,15.5C 10.4508,15.2942 10.1175,14.4609 11.5,13C 16.6842,12.1837 21.6842,12.3503 26.5,13.5 Z"/></g>
<g><path style="opacity:1" fill="#b9aeca" d="M 45.5,11.5 C 41.6749,14.1451 37.5082,16.1451 33,17.5C 31.1049,17.3852 29.4382,16.7185 28,15.5C 25.2227,16.3851 22.056,16.3851 18.5,15.5C 17.1667,15.5 15.8333,15.5 14.5,15.5C 14.3893,14.8826 14.056,14.3826 13.5,14C 17.8206,13.501 22.1539,13.3343 26.5,13.5C 30.7674,15.0841 34.7674,14.7508 38.5,12.5C 40.3797,12.7709 41.713,12.1042 42.5,10.5C 43.8313,7.95114 44.8313,8.28448 45.5,11.5 Z"/></g>
<g><path style="opacity:1" fill="#020937" d="M 45.5,11.5 C 45.7214,12.7348 46.3881,13.7348 47.5,14.5C 47.3764,15.1067 47.0431,15.44 46.5,15.5C 43.7378,16.8699 41.4044,18.7032 39.5,21C 40.5061,22.338 41.5061,23.6713 42.5,25C 42.0426,25.414 41.7093,25.914 41.5,26.5C 44.0676,29.2249 43.901,31.5582 41,33.5C 37.9845,30.3172 34.8178,27.3172 31.5,24.5C 29.417,25.9587 27.2503,27.2921 25,28.5C 24.9489,31.2766 24.7822,33.9433 24.5,36.5C 22.8144,35.1431 21.1477,33.8098 19.5,32.5C 18.7377,30.7376 17.4044,29.7376 15.5,29.5C 15.4431,28.391 15.1098,27.391 14.5,26.5C 16.5273,26.6621 18.5273,26.4955 20.5,26C 23.2665,24.5692 25.2665,23.0692 26.5,21.5C 26.67,20.1779 26.3366,19.0113 25.5,18C 22.9963,17.3024 20.663,16.4691 18.5,15.5C 22.056,16.3851 25.2227,16.3851 28,15.5C 29.4382,16.7185 31.1049,17.3852 33,17.5C 37.5082,16.1451 41.6749,14.1451 45.5,11.5 Z"/></g>
<g><path style="opacity:1" fill="#4d4d4d" d="M 47.5,17.5 C 47.9867,16.5266 48.4867,15.5266 49,14.5C 49.7252,16.1575 49.2252,17.1575 47.5,17.5 Z"/></g>
<g><path style="opacity:1" fill="#2c070a" d="M 12.5,15.5 C 13.1667,15.5 13.8333,15.5 14.5,15.5C 15.8333,15.5 17.1667,15.5 18.5,15.5C 20.663,16.4691 22.9963,17.3024 25.5,18C 26.3366,19.0113 26.67,20.1779 26.5,21.5C 24.7028,20.2702 22.7028,19.6036 20.5,19.5C 17.6717,18.3447 15.0051,17.0114 12.5,15.5 Z"/></g>
<g><path style="opacity:1" fill="#bbabbf" d="M 20.5,19.5 C 22.7028,19.6036 24.7028,20.2702 26.5,21.5C 25.2665,23.0692 23.2665,24.5692 20.5,26C 18.5273,26.4955 16.5273,26.6621 14.5,26.5C 11.8728,25.9084 9.20616,25.5751 6.5,25.5C 6.5,24.8333 6.5,24.1667 6.5,23.5C 11.8333,23.5 17.1667,23.5 22.5,23.5C 22.4729,21.8007 21.8062,20.4674 20.5,19.5 Z"/></g>
<g><path style="opacity:1" fill="#2e0b0a" d="M 6.5,25.5 C 9.20616,25.5751 11.8728,25.9084 14.5,26.5C 15.1098,27.391 15.4431,28.391 15.5,29.5C 13.2986,28.4336 10.9653,27.767 8.5,27.5C 7.83333,26.8333 7.16667,26.1667 6.5,25.5 Z"/></g>
<g><path style="opacity:1" fill="#e3784a" d="M 2.5,23.5 C 3.83333,23.5 5.16667,23.5 6.5,23.5C 6.5,24.1667 6.5,24.8333 6.5,25.5C 7.16667,26.1667 7.83333,26.8333 8.5,27.5C 9.80624,28.4674 10.4729,29.8007 10.5,31.5C 8.16667,32.1667 5.83333,32.8333 3.5,33.5C 2.58627,30.272 2.25293,26.9387 2.5,23.5 Z"/></g>
<g><path style="opacity:1" fill="#b4aaaf" d="M 8.5,27.5 C 10.9653,27.767 13.2986,28.4336 15.5,29.5C 17.4044,29.7376 18.7377,30.7376 19.5,32.5C 18.8485,33.0906 18.1818,33.7573 17.5,34.5C 16.3044,34.1543 16.3044,33.6543 17.5,33C 15.9556,31.8129 14.2889,31.4795 12.5,32C 10.6575,34.0738 8.6575,35.9071 6.5,37.5C 4.73758,36.7377 3.73758,35.4044 3.5,33.5C 5.83333,32.8333 8.16667,32.1667 10.5,31.5C 10.4729,29.8007 9.80624,28.4674 8.5,27.5 Z"/></g>
<g><path style="opacity:1" fill="#282828" d="M 39.5,46.5 C 47.3374,40.196 50.8374,31.8626 50,21.5C 51.9112,31.0948 49.4112,39.2614 42.5,46C 41.552,46.4828 40.552,46.6495 39.5,46.5 Z"/></g>
<g><path style="opacity:1" fill="#3e93c9" d="M 46.5,15.5 C 46.3284,16.4916 46.6618,17.1583 47.5,17.5C 49.0716,23.4044 48.7382,29.0711 46.5,34.5C 44.21,36.7245 41.71,38.7245 39,40.5C 38.5172,41.448 38.3505,42.448 38.5,43.5C 35.8333,43.8333 33.1667,44.1667 30.5,44.5C 30.5,45.5 30.5,46.5 30.5,47.5C 26.4454,47.8242 22.4454,47.4909 18.5,46.5C 16.01,44.9172 13.3433,43.9172 10.5,43.5C 9.11841,42.1995 7.45174,41.3661 5.5,41C 6.33663,39.9887 6.66997,38.8221 6.5,37.5C 8.6575,35.9071 10.6575,34.0738 12.5,32C 14.2889,31.4795 15.9556,31.8129 17.5,33C 16.3044,33.6543 16.3044,34.1543 17.5,34.5C 18.1818,33.7573 18.8485,33.0906 19.5,32.5C 21.1477,33.8098 22.8144,35.1431 24.5,36.5C 24.7822,33.9433 24.9489,31.2766 25,28.5C 27.2503,27.2921 29.417,25.9587 31.5,24.5C 34.8178,27.3172 37.9845,30.3172 41,33.5C 43.901,31.5582 44.0676,29.2249 41.5,26.5C 41.7093,25.914 42.0426,25.414 42.5,25C 41.5061,23.6713 40.5061,22.338 39.5,21C 41.4044,18.7032 43.7378,16.8699 46.5,15.5 Z"/></g>
<g><path style="opacity:1" fill="#78909f" d="M 46.5,34.5 C 41.6005,45.7891 32.9338,50.6224 20.5,49C 17.8987,48.0797 15.2321,47.413 12.5,47C 12.8333,46.6667 13.1667,46.3333 13.5,46C 12.0577,45.6232 11.0577,44.7899 10.5,43.5C 13.3433,43.9172 16.01,44.9172 18.5,46.5C 22.4454,47.4909 26.4454,47.8242 30.5,47.5C 30.5,46.5 30.5,45.5 30.5,44.5C 33.1667,44.1667 35.8333,43.8333 38.5,43.5C 38.3505,42.448 38.5172,41.448 39,40.5C 41.71,38.7245 44.21,36.7245 46.5,34.5 Z"/></g>
<g><path style="opacity:1" fill="#1b1b1b" d="M 39.5,46.5 C 39.6309,47.3764 39.2975,48.0431 38.5,48.5C 36.396,49.5195 34.396,50.5195 32.5,51.5C 28.8333,51.5 25.1667,51.5 21.5,51.5C 27.7925,51.2544 33.7925,49.5877 39.5,46.5 Z"/></g>
</svg>
