<svg width="23" height="24" viewBox="0 0 23 24" fill="none" xmlns="http://www.w3.org/2000/svg">
<path fill-rule="evenodd" clip-rule="evenodd" d="M11.5097 0.734985C12.1143 0.734985 12.6941 0.975164 13.1216 1.40268C13.5492 1.83021 13.7893 2.41005 13.7893 3.01465V9.85365H20.6283C21.2329 9.85365 21.8128 10.0938 22.2403 10.5214C22.6678 10.9489 22.908 11.5287 22.908 12.1333C22.908 12.7379 22.6678 13.3178 22.2403 13.7453C21.8128 14.1728 21.2329 14.413 20.6283 14.413H13.7893V21.252C13.7893 21.8566 13.5492 22.4364 13.1216 22.864C12.6941 23.2915 12.1143 23.5317 11.5097 23.5317C10.9051 23.5317 10.3252 23.2915 9.89769 22.864C9.47017 22.4364 9.23 21.8566 9.23 21.252V14.413H2.391C1.78639 14.413 1.20655 14.1728 0.779025 13.7453C0.351505 13.3178 0.111328 12.7379 0.111328 12.1333C0.111328 11.5287 0.351505 10.9489 0.779025 10.5214C1.20655 10.0938 1.78639 9.85365 2.391 9.85365H9.23V3.01465C9.23 2.41005 9.47017 1.83021 9.89769 1.40268C10.3252 0.975164 10.9051 0.734985 11.5097 0.734985Z" fill="white" fill-opacity="0.8"/>
</svg>
